<svg xmlns="http://www.w3.org/2000/svg" viewBox="0 0 265 85">
  <title>brick</title>
  <g>
  <path d="M32.39,20.57 C27.7221638,20.5164296 23.1051857,21.5431853 18.9,23.57 C16.2840707,24.8712171 13.8665249,26.5379095 11.72,28.52 L11.72,0 L0,0 L0,85 L11.71,85 L11.71,76.7 C13.7270809,78.686259 16.0208223,80.3703569 18.52,81.7 C22.7634559,83.9106874 27.4854285,85.0439608 32.27,85 L32.36,85 C40.743569,85.0762406 48.7815464,81.6639942 54.55,75.58 C60.606739,69.6010464 63.9619621,61.4098237 63.84,52.9 C63.994058,44.3389804 60.6794516,36.0795151 54.65,30 C48.8779762,23.8757395 40.8050182,20.4485403 32.39,20.55 M52,52.67 C52.0002526,56.350081 51.0384565,59.9662964 49.21,63.16 C45.6920057,69.6049375 38.9123323,73.5904938 31.57,73.53 C26.1084829,73.6710222 20.8430702,71.490727 17.08,67.53 C13.1383924,63.5269031 11.0065339,58.085244 11.18,52.47 C11.1102719,48.7542723 12.0171609,45.0853375 13.81,41.83 C15.5666373,38.6960775 18.1643976,36.1156355 21.31,34.38 C24.4645515,32.5635684 28.0398636,31.6050952 31.68,31.6 C35.2032875,31.5961913 38.6608196,32.5539277 41.68,34.37 C44.841878,36.2307236 47.4379256,38.9166477 49.19,42.14 C51.0261314,45.3460393 51.9946514,48.9754042 52,52.67" id="Shape"></path>
<path d="M98.08,21.83 C94.9429582,21.8504476 91.8830116,22.8042876 89.29,24.57 C87.9747312,25.4394655 86.7546712,26.4450094 85.65,27.57 L85.65,23.26 L74,23.26 L74,85 L85.65,85 L85.65,62.47 C85.65,52.86 86.13,46.4 86.92,43.7 C88,39.79 89.57,37.13 91.37,35.53 C92.8437106,34.0570423 94.8180465,33.1930471 96.9,33.11 C97.9429887,33.1833545 98.9618266,33.4584407 99.9,33.92 L101.6,34.64 L107.5,25.1 L105.51,24 C103.260862,22.6491032 100.702478,21.8984602 98.08,21.82" id="Shape"></path>
<rect id="Rectangle-path" x="117.79" y="23.26" width="11.48" height="61.76"></rect>
<path d="M191,65 C186.1,71.1 180.17,74 172.52,74 C168.637524,74.0573187 164.805296,73.1173383 161.39,71.27 C158.159741,69.51778 155.485256,66.8952608 153.67,63.7 C151.811241,60.5320156 150.837325,56.9230029 150.85,53.25 C150.776471,47.8030921 153.010579,42.5792764 157,38.87 C161.12,34.87 166.13,32.87 172.49,32.87 C180.49,32.87 186.38,35.81 190.99,41.87 L192.17,43.43 L201.33,37.74 L200.25,35.93 C198.538062,33.006893 196.272433,30.4457461 193.58,28.39 C190.738281,26.2916813 187.564055,24.6859758 184.19,23.64 C180.512462,22.4258884 176.66274,21.8146606 172.79,21.83 C166.861609,21.7577051 161.012013,23.1925765 155.79,26 C150.796723,28.7221176 146.646052,32.7621032 143.79,37.68 C140.887642,42.5800636 139.367109,48.1749333 139.39,53.87 C139.269609,62.2233193 142.683545,70.2388035 148.79,75.94 C154.99,81.94 162.79,84.94 172.09,84.94 L172.18,84.94 C177.876973,85.0339308 183.519177,83.8158443 188.67,81.38 C193.383376,79.1142573 197.400415,75.6222306 200.3,71.27 L201.49,69.47 L192.34,63.47 L191,65" id="Shape"></path>
<polygon id="Shape" points="229.89 53.63 263.18 24.75 246.05 24.75 223.03 44.79 223.03 1.65 211.56 1.65 211.56 85.03 223.03 85.03 223.03 62.45 248.28 85.03 264.83 85.03"></polygon>
<rect class="potyi" x="117.79" y="1.65" width="11.48" height="11.49"></rect>
</g>
</svg>