<svg xmlns="http://www.w3.org/2000/svg" viewBox="0 0 200 200">
  <title>connector</title>
  <path class="circleframe" d="M100,200A100,100,0,1,1,200,100,100.11,100.11,0,0,1,100,200ZM100,6a94,94,0,1,0,94,94A94.14,94.14,0,0,0,100,6Z"/>
  <g>
    <path d="M80.41,142.17A42.16,42.16,0,1,1,122.58,100,42.21,42.21,0,0,1,80.41,142.17Zm0-78.36A36.19,36.19,0,1,0,116.61,100,36.23,36.23,0,0,0,80.41,63.81Z"/>
    <path d="M119.59,142.17A42.16,42.16,0,1,1,161.75,100,42.21,42.21,0,0,1,119.59,142.17Zm0-78.36A36.19,36.19,0,1,0,155.78,100,36.23,36.23,0,0,0,119.59,63.81Z"/>
  </g>
</svg>