<svg xmlns="http://www.w3.org/2000/svg" viewBox="0 0 200 200">
  <title>node</title>
    <path class="defcol" d="M100,200A100,100,0,1,1,200,100,100.11,100.11,0,0,1,100,200ZM100,3.31A96.69,96.69,0,1,0,196.69,100,96.8,96.8,0,0,0,100,3.31Z"/>
    <path d="M75.84,109a9,9,0,1,1,9-9A9,9,0,0,1,75.84,109Zm0-11.31A2.35,2.35,0,1,0,78.18,100,2.35,2.35,0,0,0,75.84,97.65Z"/>
    <path d="M124.16,81.19a9,9,0,1,1,9-9A9,9,0,0,1,124.16,81.19Zm0-11.31a2.35,2.35,0,1,0,2.35,2.35A2.35,2.35,0,0,0,124.16,69.88Z"/>
    <path d="M124.16,135.85a9,9,0,1,1,9-9A9,9,0,0,1,124.16,135.85Zm0-11.31a2.34,2.34,0,1,0,2.35,2.35A2.35,2.35,0,0,0,124.16,124.55Z"/>
    <rect x="75.65" y="82.42" width="44.24" height="6.62" transform="translate(-28.5 54.7) rotate(-27.44)"/>
    <rect x="94.46" y="91.68" width="6.62" height="44.24" transform="translate(-48.28 148.14) rotate(-62.56)"/>
</svg>
