<svg xmlns="http://www.w3.org/2000/svg" viewBox="0 0 200 200">
  <title>nodemonitor</title>
  <path class="circleframe" d="M100,200A100,100,0,1,1,200,100,100.11,100.11,0,0,1,100,200ZM100,6a94,94,0,1,0,94,94A94.13,94.13,0,0,0,100,6Z"/>
  <g>
    <path d="M54.79,115.92A14.92,14.92,0,1,1,69.72,101,14.94,14.94,0,0,1,54.79,115.92Zm0-23.88a9,9,0,1,0,9,9A9,9,0,0,0,54.79,92Z"/>
    <path d="M118.31,84.5a14.92,14.92,0,1,1,14.92-14.92A14.94,14.94,0,0,1,118.31,84.5Zm0-23.88a9,9,0,1,0,9,9A9,9,0,0,0,118.31,60.62Z"/>
    <path d="M118.31,146.35a14.92,14.92,0,1,1,14.92-14.92A14.94,14.94,0,0,1,118.31,146.35Zm0-23.88a9,9,0,1,0,9,9A9,9,0,0,0,118.31,122.47Z"/>
    <rect x="61.76" y="81.87" width="50.05" height="5.97" transform="translate(-29.36 49.59) rotate(-27.47)"/>
    <rect x="83.8" y="91.59" width="5.97" height="50.05" transform="translate(-56.7 139.91) rotate(-62.57)"/>
  </g>
</svg>