<svg xmlns="http://www.w3.org/2000/svg" viewBox="0 0 200 200">
  <title>pulze</title>
  <path fill="#25A7E0" d="M100,200C45.5,200,1.16,155.14,1.16,100S45.5,0,100,0s98.84,44.86,98.84,100S154.5,200,100,200Zm0-188.91C51.62,11.09,12.26,51,12.26,100s39.36,88.9,87.74,88.9S187.74,149,187.74,100,148.38,11.09,100,11.09Z"/>
  <path fill="#396176" d="M100,177a77,77,0,1,1,77-77A77,77,0,0,1,100,177Zm0-148.36A71.41,71.41,0,1,0,171.41,100,71.49,71.49,0,0,0,100,28.59Z"/>
  <path fill="#25A7E0" d="M100,156.46A56.46,56.46,0,1,1,156.46,100,56.52,56.52,0,0,1,100,156.46Zm0-107.37A50.91,50.91,0,1,0,150.91,100,51,51,0,0,0,100,49.09Z"/>
</svg>
