<svg xmlns="http://www.w3.org/2000/svg" viewBox="0 0 200 200">
  <title>user</title>
  <path class="circleframe" d="M100,200A100,100,0,1,1,200,100,100.11,100.11,0,0,1,100,200ZM100,6a94,94,0,1,0,94,94A94.14,94.14,0,0,0,100,6Z"/>
  <path d="M158.87,179.2h-6c0-30.29-23.73-54.92-52.9-54.92S47.1,148.92,47.1,179.2h-6c0-33.58,26.41-60.89,58.87-60.89S158.87,145.63,158.87,179.2Z"/>
  <path d="M100,107.51a24.79,24.79,0,1,1,24.79-24.79A24.82,24.82,0,0,1,100,107.51Zm0-43.61a18.82,18.82,0,1,0,18.82,18.82A18.84,18.84,0,0,0,100,63.9Z"/>
</svg>