<?xml version="1.0" standalone="no"?>
<!DOCTYPE svg PUBLIC "-//W3C//DTD SVG 20010904//EN"
 "http://www.w3.org/TR/2001/REC-SVG-20010904/DTD/svg10.dtd">
<svg version="1.0" xmlns="http://www.w3.org/2000/svg"
 width="700.000000pt" height="700.000000pt" viewBox="0 0 700.000000 700.000000"
 preserveAspectRatio="xMidYMid meet">
<metadata>
Created by potrace 1.11, written by Peter Selinger 2001-2013
</metadata>
<g transform="translate(0.000000,700.000000) scale(0.100000,-0.100000)"
fill="#000000" stroke="none">
<path d="M3318 6885 c-2 -2 -48 -6 -103 -10 -55 -4 -102 -8 -105 -10 -3 -1
-30 -6 -61 -9 -31 -4 -67 -9 -80 -11 -13 -3 -40 -7 -59 -11 -53 -8 -209 -43
-265 -60 -27 -8 -60 -16 -72 -18 -91 -18 -418 -148 -578 -231 -458 -237 -776
-501 -1143 -950 -9 -11 -50 -67 -90 -125 -311 -442 -517 -971 -587 -1510 -12
-96 -15 -117 -20 -190 -8 -98 -8 -405 -1 -500 37 -466 149 -871 351 -1277 80
-160 176 -325 243 -415 23 -32 42 -60 42 -62 0 -3 8 -16 19 -28 10 -13 49 -61
86 -108 157 -196 322 -360 550 -546 156 -126 367 -259 580 -364 257 -127 407
-183 675 -251 84 -22 262 -57 330 -65 25 -3 56 -7 70 -9 141 -26 602 -26 800
0 14 1 50 6 80 10 109 13 348 68 490 112 409 126 779 322 1110 587 228 183
470 439 637 674 263 371 455 796 549 1217 42 186 61 312 80 525 7 89 8 429 0
486 -3 21 -8 73 -11 114 -7 86 -44 319 -59 368 -3 9 -7 28 -10 42 -40 230
-214 676 -365 937 -288 498 -699 917 -1194 1216 -276 167 -701 341 -937 384
-14 2 -50 10 -80 18 -30 7 -77 17 -105 21 -27 4 -57 9 -65 10 -8 2 -35 6 -60
9 -25 3 -58 8 -75 10 -100 15 -555 30 -567 20z m502 -391 c114 -14 148 -19
225 -34 28 -6 59 -12 70 -14 96 -19 221 -54 365 -103 55 -19 58 -20 200 -81
822 -358 1449 -1087 1690 -1965 12 -43 23 -86 25 -95 2 -9 8 -37 14 -62 5 -25
15 -74 20 -110 6 -36 13 -76 16 -90 27 -153 39 -508 22 -700 -42 -481 -198
-950 -449 -1351 -488 -782 -1291 -1291 -2193 -1393 -201 -23 -513 -23 -645 -1
-14 3 -52 7 -85 10 -33 4 -76 10 -95 15 -19 5 -53 11 -75 15 -71 10 -298 73
-411 113 -740 266 -1354 822 -1693 1532 -203 426 -295 836 -295 1315 0 203 11
342 40 510 3 17 7 44 10 60 11 68 68 286 99 380 127 386 336 750 604 1055 332
376 757 667 1216 832 115 42 262 87 305 94 14 3 32 7 40 10 21 8 208 42 260
48 25 3 77 8 115 12 39 3 72 8 74 10 9 9 439 -1 531 -12z"/>
<path d="M3368 6105 c-2 -1 -45 -5 -96 -9 -305 -22 -649 -119 -944 -267 -785
-393 -1337 -1185 -1424 -2044 -3 -27 -7 -66 -9 -85 -6 -50 -6 -355 0 -420 36
-400 157 -778 356 -1117 361 -611 984 -1065 1673 -1218 208 -46 351 -60 606
-59 190 1 231 5 450 40 19 3 91 19 158 35 725 176 1367 693 1698 1368 74 151
71 144 114 256 26 69 84 259 95 312 2 10 8 38 13 63 6 25 13 63 16 85 4 23 8
51 11 64 2 13 7 56 11 95 3 39 8 82 10 96 5 30 5 363 -1 404 -2 16 -6 57 -9
90 -4 34 -8 71 -10 83 -3 11 -7 36 -10 54 -98 615 -457 1221 -951 1608 -44 34
-89 69 -99 78 -107 87 -438 261 -631 332 -173 63 -407 120 -565 136 -25 3 -61
8 -80 11 -34 6 -376 14 -382 9z m377 -199 c17 -3 53 -8 80 -11 188 -23 471
-103 652 -184 537 -242 952 -645 1207 -1174 160 -330 239 -681 237 -1047 0
-143 -13 -313 -26 -360 -2 -8 -7 -37 -11 -65 -3 -27 -8 -53 -10 -56 -2 -3 -6
-21 -9 -40 -16 -94 -93 -330 -148 -454 -87 -196 -230 -425 -363 -581 -160
-190 -394 -391 -594 -511 -255 -153 -600 -281 -858 -319 -20 -3 -42 -7 -49 -9
-32 -10 -197 -20 -358 -20 -182 0 -282 6 -371 24 -27 6 -62 12 -79 15 -44 7
-88 16 -107 22 -9 3 -25 6 -35 8 -94 19 -335 108 -468 173 -148 74 -361 206
-425 265 -14 13 -43 36 -64 52 -61 46 -255 243 -321 326 -33 41 -62 77 -65 80
-12 11 -130 189 -130 195 0 4 -9 19 -19 34 -28 39 -125 236 -161 326 -60 151
-118 358 -135 480 -3 22 -8 47 -10 55 -2 8 -6 38 -9 65 -22 196 -23 404 -1
585 48 413 226 850 478 1179 137 180 346 384 502 492 28 18 52 37 55 40 10 13
195 121 279 163 184 93 462 190 606 212 28 5 52 9 55 9 3 1 28 5 55 9 28 4 61
10 75 12 14 3 77 7 140 11 63 3 116 7 118 8 5 5 255 -4 287 -9z"/>
<path d="M3339 5406 c-2 -2 -28 -7 -58 -10 -30 -4 -64 -9 -75 -11 -12 -2 -39
-7 -60 -10 -124 -17 -352 -93 -496 -165 -395 -198 -717 -532 -893 -925 -71
-159 -127 -338 -143 -460 -3 -27 -8 -52 -9 -55 -22 -37 -23 -502 -1 -538 2 -4
7 -33 10 -65 7 -61 59 -254 95 -352 31 -84 106 -238 147 -302 19 -29 34 -56
34 -59 0 -3 34 -50 75 -105 319 -420 788 -693 1300 -754 28 -4 61 -8 75 -11
52 -9 318 -3 395 10 22 3 58 9 80 12 79 11 272 63 364 98 403 155 746 443 968
816 55 91 143 278 143 302 0 7 4 18 9 24 16 18 72 223 87 324 3 25 8 54 10 65
13 67 17 127 17 265 0 85 -3 173 -7 195 -4 22 -13 81 -21 130 -34 213 -124
455 -238 645 -228 381 -576 670 -987 820 -95 35 -244 78 -295 85 -28 4 -105
16 -135 22 -30 5 -386 14 -391 9z m386 -198 c6 -3 35 -9 65 -13 30 -3 78 -13
106 -21 28 -8 61 -17 73 -19 39 -7 194 -66 271 -103 287 -137 542 -362 713
-629 143 -224 234 -482 264 -753 11 -101 8 -316 -6 -410 -46 -301 -150 -554
-330 -800 -258 -353 -680 -607 -1111 -670 -41 -6 -88 -13 -105 -15 -39 -6
-257 -6 -315 -1 -105 11 -151 18 -250 42 -136 32 -202 55 -328 115 -231 109
-382 223 -587 443 -34 36 -100 127 -154 214 -122 195 -210 439 -242 672 -20
149 -16 402 10 537 70 360 227 661 480 914 185 185 383 313 624 403 74 28 242
73 297 80 71 10 125 18 128 21 6 6 388 -1 397 -7z"/>
</g>
</svg>
