<?xml version="1.0" encoding="UTF-8" standalone="no"?>
<svg width="96px" height="39px" viewBox="0 0 96 39" version="1.1" xmlns="http://www.w3.org/2000/svg" xmlns:xlink="http://www.w3.org/1999/xlink">
    <!-- Generator: Sketch 39.1 (31720) - http://www.bohemiancoding.com/sketch -->
    <title>logo</title>
    <desc>Created with Sketch.</desc>
    <defs>
        <polygon id="path-1" points="0 0.9028 0 38.9998 37.6547 38.9998 37.6547 0.9028 0 0.9028"></polygon>
    </defs>
    <g id="Page-1" stroke="none" stroke-width="1" fill="none" fill-rule="evenodd">
        <g id="logo" transform="translate(0.000000, -1.000000)">
            <path d="M51.343,18.9845 L52.407,18.9845 C53.669,18.9845 54.239,18.3175 54.239,16.8575 L54.239,15.8175 C54.239,14.3575 53.669,13.6905 52.407,13.6905 L51.343,13.6905 L51.343,18.9845 Z M52.506,11.2655 C55.327,11.2655 56.86,12.7985 56.86,15.6435 L56.86,17.0315 C56.86,19.8745 55.327,21.4095 52.506,21.4095 L51.343,21.4095 L51.343,28.5845 L48.72,28.5845 L48.72,11.2655 L52.506,11.2655 Z" id="Fill-1" fill="#25A7E0"></path>
            <path d="M67.0802,24.6994 C67.0802,27.4214 65.5212,28.8304 62.9972,28.8304 C60.5242,28.8304 58.9652,27.4214 58.9652,24.6994 L58.9652,11.2654 L61.4882,11.2654 L61.4882,24.6264 C61.4882,25.8864 62.0572,26.3574 62.9732,26.3574 C63.8892,26.3574 64.4572,25.8864 64.4572,24.6264 L64.4572,11.2654 L67.0802,11.2654 L67.0802,24.6994 Z" id="Fill-3" fill="#25A7E0"></path>
            <polygon id="Fill-5" fill="#25A7E0" points="76.1887 26.1112 76.1887 28.5842 69.1857 28.5842 69.1857 11.2652 71.8087 11.2652 71.8087 26.1112"></polygon>
            <polygon id="Fill-7" fill="#25A7E0" points="81.1392 26.1595 85.9642 26.1595 85.9642 28.5845 78.2942 28.5845 78.2942 26.4065 83.1192 13.6905 78.5432 13.6905 78.5432 11.2655 85.9642 11.2655 85.9642 13.4435"></polygon>
            <polygon id="Fill-9" fill="#25A7E0" points="90.6925 13.6903 90.6925 18.5883 94.5295 18.5883 94.5295 21.0123 90.6925 21.0123 90.6925 26.1593 95.4425 26.1593 95.4425 28.5843 88.0695 28.5843 88.0695 11.2653 95.4425 11.2653 95.4425 13.6903"></polygon>
            <g id="Group-13" transform="translate(0.000000, 0.097500)">
                <mask id="mask-2" fill="white">
                    <use xlink:href="#path-1"></use>
                </mask>
                <g id="Clip-12"></g>
                <path d="M18.8277,3.0158 C9.6117,3.0158 2.1137,10.6128 2.1137,19.9518 C2.1137,29.2898 9.6117,36.8868 18.8277,36.8868 C28.0437,36.8868 35.5417,29.2898 35.5417,19.9518 C35.5417,10.6128 28.0437,3.0158 18.8277,3.0158 M18.8277,38.9998 C8.4457,38.9998 -0.0003,30.4548 -0.0003,19.9518 C-0.0003,9.4478 8.4457,0.9028 18.8277,0.9028 C29.2097,0.9028 37.6547,9.4478 37.6547,19.9518 C37.6547,30.4548 29.2097,38.9998 18.8277,38.9998" id="Fill-11" fill="#25A7E0" mask="url(#mask-2)"></path>
            </g>
            <path d="M18.8277,6.4464 C11.3277,6.4464 5.2257,12.5484 5.2257,20.0494 C5.2257,27.5494 11.3277,33.6514 18.8277,33.6514 C26.3277,33.6514 32.4297,27.5494 32.4297,20.0494 C32.4297,12.5484 26.3277,6.4464 18.8277,6.4464 M18.8277,34.7074 C10.7447,34.7074 4.1687,28.1324 4.1687,20.0494 C4.1687,11.9664 10.7447,5.3894 18.8277,5.3894 C26.9107,5.3894 33.4867,11.9664 33.4867,20.0494 C33.4867,28.1324 26.9107,34.7074 18.8277,34.7074" id="Fill-14" fill="#396176"></path>
            <path d="M18.8277,10.3506 C13.4797,10.3506 9.1297,14.7016 9.1297,20.0486 C9.1297,25.3966 13.4797,29.7466 18.8277,29.7466 C24.1747,29.7466 28.5257,25.3966 28.5257,20.0486 C28.5257,14.7016 24.1747,10.3506 18.8277,10.3506 M18.8277,30.8036 C12.8977,30.8036 8.0727,25.9786 8.0727,20.0486 C8.0727,14.1186 12.8977,9.2936 18.8277,9.2936 C24.7577,9.2936 29.5827,14.1186 29.5827,20.0486 C29.5827,25.9786 24.7577,30.8036 18.8277,30.8036" id="Fill-16" fill="#25A7E0"></path>
        </g>
    </g>
</svg>